<svg xmlns="http://www.w3.org/2000/svg" fill="#00979c" preserveAspectRatio="xMidYMid" viewBox="0 0 32 32"><path d="M23.8 23.6c-2 0-3.8-.8-5.3-2.2-1-.8-1.8-1.9-2.5-3-.7 1.1-1.5 2.2-2.5 3a7.6 7.6 0 0 1-5.8 2.1A7.7 7.7 0 0 1 0 16c0-4.2 3.5-7.5 7.8-7.5a8.5 8.5 0 0 1 6 2.3c.9.8 1.6 1.7 2.2 2.6.6-1 1.3-1.8 2.2-2.6a8.5 8.5 0 0 1 6-2.4c4.3 0 7.8 3.4 7.8 7.6 0 4.1-3.5 7.5-7.7 7.5a9.4 9.4 0 0 1-.5 0zm-6.2-7.7c.8 1.4 1.6 2.7 2.7 3.6a5 5 0 0 0 3.8 1.4h.1c2.8 0 5.1-2.2 5.1-4.9s-2.3-4.9-5-4.9a5.9 5.9 0 0 0-4.3 1.7c-1 .8-1.7 2-2.4 3.1zM7.8 11c-2.8 0-5.1 2.2-5.1 4.9s2.3 4.9 5.1 4.9a5 5 0 0 0 4-1.4c1-1 1.8-2.2 2.6-3.6-.7-1.2-1.5-2.3-2.4-3.1A5.9 5.9 0 0 0 7.8 11zm16.8 4v-1.5H23V15h-1.5v1.5h1.5V18h1.5v-1.5H26V15h-1.4m-19 0h4.8v1.5H5.6z"/></svg>
